<svg width="50" height="50" viewBox="0 0 50 50" fill="none" xmlns="http://www.w3.org/2000/svg">
<path d="M21.0566 4.36462C23.2448 2.22026 26.7552 2.22026 28.9434 4.36462L45.9268 21.0084C48.1657 23.2024 48.1657 26.7978 45.9268 28.9918L28.9434 45.6356C26.7552 47.7799 23.2448 47.7799 21.0566 45.6356L4.07322 28.9918C1.8344 26.7978 1.8344 23.2024 4.07322 21.0084L21.0566 4.36462Z" fill="url(#paint0_linear_1841_491)"/>
<path d="M21.7871 18.7998C21.7871 17.9714 21.1129 17.2998 20.2811 17.2998C19.4494 17.2998 18.7751 17.9714 18.7751 18.7998V31.5998C18.7751 32.4282 19.4494 33.0998 20.2811 33.0998C21.1129 33.0998 21.7871 32.4282 21.7871 31.5998V18.7998Z" fill="#46BF7E"/>
<path d="M25.7028 22C25.7028 21.1716 25.0285 20.5 24.1968 20.5C23.365 20.5 22.6907 21.1716 22.6907 22V31.6C22.6907 32.4284 23.365 33.1 24.1968 33.1C25.0285 33.1 25.7028 32.4284 25.7028 31.6V22Z" fill="#29BFFF"/>
<path d="M29.6185 25.2002C29.6185 24.3718 28.9442 23.7002 28.1125 23.7002C27.2807 23.7002 26.6064 24.3718 26.6064 25.2002V31.6002C26.6064 32.4286 27.2807 33.1002 28.1125 33.1002C28.9442 33.1002 29.6185 32.4286 29.6185 31.6002V25.2002Z" fill="#FF596D"/>
<path d="M33.5341 28.3999C33.5341 27.5715 32.8599 26.8999 32.0281 26.8999C31.1964 26.8999 30.5221 27.5715 30.5221 28.3999V31.5999C30.5221 32.4283 31.1964 33.0999 32.0281 33.0999C32.8599 33.0999 33.5341 32.4283 33.5341 31.5999V28.3999Z" fill="#FFBE3F"/>
<defs>
<linearGradient id="paint0_linear_1841_491" x1="25" y1="0.500108" x2="25" y2="49.5001" gradientUnits="userSpaceOnUse">
<stop stop-color="#222225"/>
<stop offset="1" stop-color="#15151B"/>
</linearGradient>
</defs>
</svg>
