<svg width="463" height="270" viewBox="0 0 463 270" fill="none" xmlns="http://www.w3.org/2000/svg">
<path d="M6.6 80V10H31.1L43.2 71H45L57.1 10H81.6V80H68.8V19.7H67L55 80H33.2L21.2 19.7H19.4V80H6.6ZM94.7836 80V10H139.784V22H107.984V38.7H136.984V50.7H107.984V68H140.384V80H94.7836ZM150.155 80V10H175.255L189.155 71H190.955V10H203.955V80H178.855L164.955 19H163.155V80H150.155ZM233.347 80V22H212.947V10H266.947V22H246.547V80H233.347ZM264.691 80L283.091 10H306.091L324.491 80H310.891L307.091 64.6H282.091L278.291 80H264.691ZM285.191 52.4H303.991L295.491 18.3H293.691L285.191 52.4ZM332.87 80V10H346.07V68H378.07V80H332.87Z" fill="#71A9FD"/>
<path d="M12.2 170L3 100H16.1L22.9 160.8H24.7L33.5 100H56.3L65.1 160.8H66.9L73.7 100H86.8L77.6 170H54.8L45.8 107.8H44L35 170H12.2ZM96.4437 170V100H141.444V112H109.644V128.7H138.644V140.7H109.644V158H142.044V170H96.4437ZM147.015 170L165.415 100H188.415L206.815 170H193.215L189.415 154.6H164.415L160.615 170H147.015ZM167.515 142.4H186.315L177.815 108.3H176.015L167.515 142.4ZM215.194 170V100H228.394V158H260.394V170H215.194ZM276.023 170V112H255.623V100H309.623V112H289.223V170H276.023ZM318.612 170V100H331.812V128.9H357.812V100H371.012V170H357.812V140.9H331.812V170H318.612Z" fill="#FAC725"/>
<path d="M1.8 260L20.2 190H43.2L61.6 260H48L44.2 244.6H19.2L15.4 260H1.8ZM22.3 232.4H41.1L32.6 198.3H30.8L22.3 232.4ZM95.993 261.4C87.3263 261.4 80.4596 259 75.393 254.2C70.3263 249.333 67.793 242.4 67.793 233.4V216.6C67.793 207.6 70.3263 200.7 75.393 195.9C80.4596 191.033 87.3263 188.6 95.993 188.6C104.593 188.6 111.226 190.967 115.893 195.7C120.626 200.367 122.993 206.8 122.993 215V215.6H109.993V214.6C109.993 210.467 108.826 207.067 106.493 204.4C104.226 201.733 100.726 200.4 95.993 200.4C91.3263 200.4 87.6596 201.833 84.993 204.7C82.3263 207.567 80.993 211.467 80.993 216.4V233.6C80.993 238.467 82.3263 242.367 84.993 245.3C87.6596 248.167 91.3263 249.6 95.993 249.6C100.726 249.6 104.226 248.267 106.493 245.6C108.826 242.867 109.993 239.467 109.993 235.4V233.6H122.993V235C122.993 243.2 120.626 249.667 115.893 254.4C111.226 259.067 104.593 261.4 95.993 261.4ZM128.167 260L146.567 190H169.567L187.967 260H174.367L170.567 244.6H145.567L141.767 260H128.167ZM148.667 232.4H167.467L158.967 198.3H157.167L148.667 232.4ZM194.346 260V248.4H203.546V201.6H194.346V190H223.146C232.546 190 239.679 192.4 244.546 197.2C249.479 201.933 251.946 209 251.946 218.4V231.6C251.946 241 249.479 248.1 244.546 252.9C239.679 257.633 232.546 260 223.146 260H194.346ZM216.746 248H223.346C228.679 248 232.579 246.6 235.046 243.8C237.513 241 238.746 237.067 238.746 232V218C238.746 212.867 237.513 208.933 235.046 206.2C232.579 203.4 228.679 202 223.346 202H216.746V248ZM262.948 260V190H307.948V202H276.148V218.7H305.148V230.7H276.148V248H308.548V260H262.948ZM318.319 260V190H342.819L354.919 251H356.719L368.819 190H393.319V260H380.519V199.7H378.719L366.719 260H344.919L332.919 199.7H331.119V260H318.319ZM424.502 260V235.9L400.702 190H415.402L430.202 220H432.002L446.802 190H461.502L437.702 235.9V260H424.502Z" fill="#E4E4F0"/>
</svg>
